<?xml version="1.0" standalone="no"?>
<!DOCTYPE svg PUBLIC "-//W3C//DTD SVG 1.1//EN" "http://www.w3.org/Graphics/SVG/1.1/DTD/svg11.dtd" >
<svg xmlns="http://www.w3.org/2000/svg">
<metadata>Generated by IcoMoon</metadata>
<defs>
<font id="icomoon" horiz-adv-x="1024">
<font-face units-per-em="1024" ascent="960" descent="-64" />
<missing-glyph horiz-adv-x="1024" />
<glyph unicode="&#x20;" horiz-adv-x="512" d="" />
<glyph unicode="&#xe900;" glyph-name="arrow-bottom" horiz-adv-x="1536" d="M1356.8 883.203l-588.8-588.8-588.8 588.8-179.2-179.2 768-768 768 768z" />
<glyph unicode="&#xe901;" glyph-name="calendar" d="M36.454-29.824v699.648h946.563v-699.648h-946.563zM36.454 857.579h109.136v-51.157c0-9.429 8.192-17.088 18.227-17.088h127.477c10.035 0 18.227 7.659 18.227 17.088v51.157h400.43v-51.157c0-9.429 8.192-17.088 18.227-17.088h127.477c10.035 0 18.113 7.659 18.113 17.088v51.157h109.249v-153.579h-946.563v153.579zM182.044 823.509v102.315h91.022v-102.315h-91.022zM746.405 823.509v102.315h91.022v-102.315h-91.022zM1001.244 891.755h-127.477v51.157c0 9.429-8.078 17.088-18.113 17.088h-127.477c-10.035 0-18.227-7.659-18.227-17.088v-51.157h-400.43v51.157c0 9.429-8.192 17.088-18.227 17.088h-127.477c-10.035 0-18.227-7.659-18.227-17.088v-51.157h-127.363c-10.058 0-18.227-7.68-18.227-17.088v-921.579c0-9.429 8.169-17.088 18.227-17.088h983.017c10.035 0 18.227 7.659 18.227 17.088v921.579c0 9.408-8.192 17.088-18.227 17.088v0zM691.723 413.824v119.509h127.477v-119.509h-127.477zM691.723 260.245v119.509h127.477v-119.509h-127.477zM691.723 106.667v119.509h127.477v-119.509h-127.477zM527.906 106.667v119.509h127.477v-119.509h-127.477zM364.089 106.667v119.509h127.477v-119.509h-127.477zM200.272 106.667v119.509h127.363v-119.509h-127.363zM200.272 260.245v119.509h127.363v-119.509h-127.363zM200.272 413.824v119.509h127.363v-119.509h-127.363zM364.089 413.824v119.509h127.477v-119.509h-127.477zM364.089 260.245v119.509h127.477v-119.509h-127.477zM527.906 260.245v119.509h127.477v-119.509h-127.477zM527.906 413.824v119.509h127.477v-119.509h-127.477zM655.383 567.509h-491.566v-495.019h691.837v495.019h-200.272z" />
<glyph unicode="&#xe902;" glyph-name="chat" horiz-adv-x="1129" d="M823.995 631.154v-388.588c0-49.992-40.573-90.542-90.542-90.542l-313.738-1.355-183.795-202.197v202.197h-130.058c-49.969 0-90.542 40.573-90.542 90.634v388.496c0 50.084 40.573 90.657 90.542 90.657l627.591 1.241c49.969 0 90.542-40.55 90.542-90.542zM658.598 409.309c10.132 0 18.402 8.156 18.402 18.288 0 10.155-8.271 18.425-18.402 18.425h-477.89c-10.132 0-18.402-8.271-18.402-18.425 0-10.132 8.271-18.288 18.402-18.288h477.89zM658.598 299.013c10.132 0 18.402 8.248 18.402 18.402 0 10.132-8.271 18.311-18.402 18.311h-477.89c-10.132 0-18.402-8.179-18.402-18.311 0-10.155 8.271-18.402 18.402-18.402h477.89zM419.713 519.5c10.132 0 18.288 8.271 18.288 18.402 0 10.155-8.156 18.402-18.288 18.402h-239.002c-10.132 0-18.402-8.248-18.402-18.402 0-10.132 8.271-18.402 18.402-18.402h239.002zM1013.713 945.604l-627.476 1.264c-50.084 0-90.657-40.573-90.657-90.542v-112.551l460.843 0.896c49.992 0 90.542-40.55 90.542-90.542v-338.964l128.702-141.522v202.197h38.046c49.992 0 90.542 40.55 90.542 90.542v388.588c0 50.084-40.55 90.634-90.542 90.634z" />
<glyph unicode="&#xe903;" glyph-name="expand-more" horiz-adv-x="1536" d="M1356.8 12.797l-588.8 588.8-588.8-588.8-179.2 179.2 768 768 768-768z" />
<glyph unicode="&#xe904;" glyph-name="activity" horiz-adv-x="1280" d="M1152 448c0 70.4 57.6 128 128 128v256c0 70.4-57.6 128-128 128h-1024c-70.4 0-127.36-57.6-127.36-128v-256c70.4 0 127.36-57.6 127.36-128s-56.96-128-128-128v-256c0-70.4 57.6-128 128-128h1024c70.4 0 128 57.6 128 128v256c-70.4 0-128 57.6-128 128v0zM869.12 140.8l-229.12 147.2-229.12-147.2 69.12 263.68-210.56 172.16 271.36 16 99.2 252.16 98.56-252.8 271.36-16-210.56-172.16 69.76-263.040z" />
<glyph unicode="&#xe905;" glyph-name="address" horiz-adv-x="717" d="M358.4 960c-197.632 0-358.4-160.768-358.4-358.4 0-268.8 358.4-665.6 358.4-665.6s358.4 396.8 358.4 665.6c0 197.632-160.768 358.4-358.4 358.4v0zM358.4 857.6c56.32 0 102.4-46.080 102.4-102.4 0-56.832-46.080-102.4-102.4-102.4s-102.4 45.568-102.4 102.4c0 56.32 46.080 102.4 102.4 102.4v0zM358.4 345.6c-85.504 0-160.768 43.52-204.8 110.080 1.024 67.584 136.704 104.96 204.8 104.96s203.776-37.376 204.8-104.96c-44.032-66.56-119.296-110.080-204.8-110.080v0z" />
<glyph unicode="&#xe906;" glyph-name="bus" horiz-adv-x="862" d="M0 205.474c0-47.427 21.019-90.004 53.895-119.646v-95.933c0-29.642 24.253-53.895 53.895-53.895h53.895c29.642 0 53.895 24.253 53.895 53.895v53.895h431.158v-53.895c0-29.642 24.253-53.895 53.895-53.895h53.895c29.642 0 53.895 24.253 53.895 53.895v95.933c32.876 29.642 53.895 72.219 53.895 119.646v538.947c0 188.632-192.943 215.579-431.158 215.579s-431.158-26.947-431.158-215.579v-538.947zM188.632 151.579c-44.733 0-80.842 36.109-80.842 80.842s36.109 80.842 80.842 80.842c44.733 0 80.842-36.109 80.842-80.842s-36.109-80.842-80.842-80.842v0zM673.684 151.579c-44.733 0-80.842 36.109-80.842 80.842s36.109 80.842 80.842 80.842c44.733 0 80.842-36.109 80.842-80.842s-36.109-80.842-80.842-80.842v0zM754.526 474.947h-646.737v269.474h646.737v-269.474z" />
<glyph unicode="&#xe907;" glyph-name="favorite-fill" horiz-adv-x="1138" d="M568.889 732.444c-38.116 98.532-144.896 170.667-256 170.667-144.668 0-256-109.909-256-256 0-200.761 215.78-356.011 512-654.222 296.22 298.212 512 453.461 512 654.222 0 146.091-111.332 256-256 256-111.218 0-217.884-72.135-256-170.667z" />
<glyph unicode="&#xe909;" glyph-name="fingerprint" horiz-adv-x="922" d="M758.272 833.536c-4.096 0-8.192 1.024-11.776 3.072-98.304 50.688-183.296 72.192-285.184 72.192-101.376 0-197.632-24.064-285.184-72.192-12.288-6.656-27.648-2.048-34.816 10.24-6.656 12.288-2.048 28.16 10.24 34.816 95.232 51.712 199.68 78.336 309.76 78.336 109.056 0 204.288-24.064 308.736-77.824 12.8-6.656 17.408-22.016 10.752-34.304-4.608-9.216-13.312-14.336-22.528-14.336v0zM25.6 564.736c-5.12 0-10.24 1.536-14.848 4.608-11.776 8.192-14.336 24.064-6.144 35.84 50.688 71.68 115.2 128 192 167.424 160.768 82.944 366.592 83.456 527.872 0.512 76.8-39.424 141.312-95.232 192-166.4 8.192-11.264 5.632-27.648-6.144-35.84s-27.648-5.632-35.84 6.144c-46.080 64.512-104.448 115.2-173.568 150.528-146.944 75.264-334.848 75.264-481.28-0.512-69.632-35.84-128-87.040-174.080-151.552-4.096-7.168-11.776-10.752-19.968-10.752v0zM345.6-53.248c-6.656 0-13.312 2.56-17.92 7.68-44.544 44.544-68.608 73.216-102.912 135.168-35.328 62.976-53.76 139.776-53.76 222.208 0 152.064 130.048 275.968 289.792 275.968s289.792-123.904 289.792-275.968c0-14.336-11.264-25.6-25.6-25.6s-25.6 11.264-25.6 25.6c0 123.904-107.008 224.768-238.592 224.768s-238.592-100.864-238.592-224.768c0-73.728 16.384-141.824 47.616-197.12 32.768-58.88 55.296-83.968 94.72-123.904 9.728-10.24 9.728-26.112 0-36.352-5.632-5.12-12.288-7.68-18.944-7.68v0zM712.704 41.472c-60.928 0-114.688 15.36-158.72 45.568-76.288 51.712-121.856 135.68-121.856 224.768 0 14.336 11.264 25.6 25.6 25.6s25.6-11.264 25.6-25.6c0-72.192 36.864-140.288 99.328-182.272 36.352-24.576 78.848-36.352 130.048-36.352 12.288 0 32.768 1.536 53.248 5.12 13.824 2.56 27.136-6.656 29.696-20.992 2.56-13.824-6.656-27.136-20.992-29.696-29.184-5.632-54.784-6.144-61.952-6.144v0zM609.792-64c-2.048 0-4.608 0.512-6.656 1.024-81.408 22.528-134.656 52.736-190.464 107.52-71.68 71.168-111.104 165.888-111.104 267.264 0 82.944 70.656 150.528 157.696 150.528s157.696-67.584 157.696-150.528c0-54.784 47.616-99.328 106.496-99.328s106.496 44.544 106.496 99.328c0 193.024-166.4 349.696-371.2 349.696-145.408 0-278.528-80.896-338.432-206.336-19.968-41.472-30.208-90.112-30.208-143.36 0-39.936 3.584-102.912 34.304-184.832 5.12-13.312-1.536-28.16-14.848-32.768-13.312-5.12-28.16 2.048-32.768 14.848-25.088 67.072-37.376 133.632-37.376 202.752 0 61.44 11.776 117.248 34.816 165.888 68.096 142.848 219.136 235.52 384.512 235.52 232.96 0 422.4-179.712 422.4-400.896 0-82.944-70.656-150.528-157.696-150.528s-157.696 67.584-157.696 150.528c0 54.784-47.616 99.328-106.496 99.328s-106.496-44.544-106.496-99.328c0-87.552 33.792-169.472 95.744-230.912 48.64-48.128 95.232-74.752 167.424-94.72 13.824-3.584 21.504-17.92 17.92-31.232-2.56-11.776-13.312-19.456-24.064-19.456v0z" />
<glyph unicode="&#xe90a;" glyph-name="plane" horiz-adv-x="986" d="M963.765 243.2v102.4l-405.796 256v281.6c0 42.496-33.985 76.8-76.087 76.8s-76.087-34.304-76.087-76.8v-281.6l-405.796-256v-102.4l405.796 128v-281.6l-101.449-76.8v-76.8l177.536 51.2 177.536-51.2v76.8l-101.449 76.8v281.6l405.796-128z" />
<glyph unicode="&#xe90b;" glyph-name="email" horiz-adv-x="1280" d="M1152 960h-1024c-70.4 0-127.36-57.6-127.36-128l-0.64-768c0-70.4 57.6-128 128-128h1024c70.4 0 128 57.6 128 128v768c0 70.4-57.6 128-128 128v0zM1152 704l-512-320-512 320v128l512-320 512 320v-128z" />
<glyph unicode="&#xe90c;" glyph-name="explore" horiz-adv-x="569" d="M284.444 799.004l180.338-180.338 80.213 80.213-260.551 261.12-261.12-261.12 80.782-80.213 180.338 180.338zM284.444 96.996l-180.338 180.338-80.213-80.213 260.551-261.12 261.12 261.12-80.782 80.213-180.338-180.338z" />
<glyph unicode="&#xe90d;" glyph-name="favorite-trip" horiz-adv-x="1078" d="M781.474 960c-93.777 0-183.781-43.655-242.526-112.64-58.745 68.985-148.749 112.64-242.526 112.64-165.996 0-296.421-130.425-296.421-296.421 0-203.722 183.242-369.718 460.8-621.945l78.147-70.602 78.147 71.141c277.558 251.688 460.8 417.684 460.8 621.406 0 165.996-130.425 296.421-296.421 296.421v0zM544.337 121.937l-5.389-5.389-5.389 5.389c-256.539 232.286-425.768 385.886-425.768 541.642 0 107.789 80.842 188.632 188.632 188.632 82.998 0 163.84-53.356 192.404-127.192h100.783c28.025 73.836 108.867 127.192 191.865 127.192 107.789 0 188.632-80.842 188.632-188.632 0-155.756-169.229-309.356-425.768-541.642v0z" />
<glyph unicode="&#xe90e;" glyph-name="hotel" horiz-adv-x="1502" d="M409.6 413.867c113.323 0 204.8 91.477 204.8 204.8s-91.477 204.8-204.8 204.8c-113.323 0-204.8-91.477-204.8-204.8s91.477-204.8 204.8-204.8v0zM1228.8 823.467h-546.133v-477.867h-546.133v614.4h-136.533v-1024h136.533v204.8h1228.8v-204.8h136.533v614.4c0 150.869-122.197 273.067-273.067 273.067v0z" />
<glyph unicode="&#xe90f;" glyph-name="itinerary" d="M512 504.32c-31.232 0-56.32-25.088-56.32-56.32s25.088-56.32 56.32-56.32c31.232 0 56.32 25.088 56.32 56.32s-25.088 56.32-56.32 56.32v0zM512 960c-282.624 0-512-229.376-512-512s229.376-512 512-512c282.624 0 512 229.376 512 512s-229.376 512-512 512v0zM624.128 335.872l-419.328-195.072 195.072 419.328 419.328 195.072-195.072-419.328z" />
<glyph unicode="&#xe910;" glyph-name="location" horiz-adv-x="717" d="M358.4 960c-198.144 0-358.4-160.256-358.4-358.4 0-268.8 358.4-665.6 358.4-665.6s358.4 396.8 358.4 665.6c0 198.144-160.256 358.4-358.4 358.4v0zM358.4 473.6c-70.656 0-128 57.344-128 128s57.344 128 128 128c70.656 0 128-57.344 128-128s-57.344-128-128-128v0z" />
<glyph unicode="&#xe911;" glyph-name="manage-trip" horiz-adv-x="922" d="M716.8 499.2h-512v-102.4h512v102.4zM819.2 857.6h-51.2v102.4h-102.4v-102.4h-409.6v102.4h-102.4v-102.4h-51.2c-56.832 0-101.888-46.080-101.888-102.4l-0.512-716.8c0-56.32 45.568-102.4 102.4-102.4h716.8c56.32 0 102.4 46.080 102.4 102.4v716.8c0 56.32-46.080 102.4-102.4 102.4v0zM819.2 38.4h-716.8v563.2h716.8v-563.2zM563.2 294.4h-358.4v-102.4h358.4v102.4z" />
<glyph unicode="&#xe912;" glyph-name="account" d="M512 960c-282.624 0-512-229.376-512-512s229.376-512 512-512c282.624 0 512 229.376 512 512s-229.376 512-512 512v0zM512 806.4c84.992 0 153.6-68.608 153.6-153.6s-68.608-153.6-153.6-153.6c-84.992 0-153.6 68.608-153.6 153.6s68.608 153.6 153.6 153.6v0zM512 79.36c-128 0-241.152 65.536-307.2 164.864 1.536 101.888 204.8 157.696 307.2 157.696 101.888 0 305.664-55.808 307.2-157.696-66.048-99.328-179.2-164.864-307.2-164.864v0z" />
<glyph unicode="&#xe913;" glyph-name="arrow-left" horiz-adv-x="683" d="M631.467 840.533l-119.467 119.467-512-512 512-512 119.467 119.467-392.533 392.533z" />
<glyph unicode="&#xe914;" glyph-name="less" horiz-adv-x="576" d="M0 26.24l89.098-90.24 198.902 202.88 198.902-202.88 88.471 90.24-287.373 293.76-288-293.76zM576 869.76l-89.098 90.24-198.902-202.88-198.902 202.88-89.098-90.24 288-293.76 288 293.76z" />
<glyph unicode="&#xe915;" glyph-name="edit" horiz-adv-x="896" d="M719.015 440.563v-434.669c0-23.764-21.67-43.031-46.105-43.031h-628.662c-24.435 0-44.247 19.267-44.247 43.031v819.508c0 23.764 19.812 41.116 44.247 41.116h459.882c24.435 0 44.247-19.267 44.247-43.031s-19.812-43.031-44.247-43.031h-415.635v-731.531h542.026v391.638c0 23.764 19.812 43.031 44.247 43.031s44.247-19.267 44.247-43.031v0zM380.525 401.975l-53.141-20.504 21.283 52.939 434.727 429.172 32.798-32.327-435.668-429.279zM886.434 853.921l-79.435 78.295c-6.239 6.143-14.745 9.607-23.628 9.607h-0.011c-8.883 0-17.389-3.475-23.628-9.617l-463.134-457.217c-3.153-3.12-5.63-6.82-7.268-10.898l-51.537-128.233c-4.812-11.963-1.869-25.561 7.489-34.629 6.349-6.132 14.801-9.392 23.418-9.392 4.115 0 8.263 0.742 12.234 2.27l130.551 50.368c4.27 1.657 8.153 4.153 11.383 7.337l463.565 456.766c12.754 12.576 12.754 32.779 0 45.344v0z" />
<glyph unicode="&#xe916;" glyph-name="grid" d="M0 704h256v256h-256v-256zM384-64h256v256h-256v-256zM0-64h256v256h-256v-256zM0 320h256v256h-256v-256zM384 320h256v256h-256v-256zM768 960v-256h256v256h-256zM384 704h256v256h-256v-256zM768 320h256v256h-256v-256zM768-64h256v256h-256v-256z" />
<glyph unicode="&#xe917;" glyph-name="map" d="M896 178.055c-32.4 21.635-69.947 40.514-111.59 56.005 14.756 54.351 24.313 113.743 26.965 176.312h168.829c-6.774-86.069-37.022-165.547-84.204-232.317v0zM657.854 1.376c47.787 45.502 87.591 112.614 114.767 193.405 36.811-13.653 70.052-30.064 98.567-48.837-55.795-66.14-129.234-117.025-213.333-144.568v0zM532.926-20.102v258.258c72.31-1.733 140.314-12.498 200.625-30.457-41.853-126.346-115.292-214.672-200.625-227.801v0zM532.926 410.372h236.413c-2.573-57.948-10.975-112.929-24.103-163.079-64.223 19.377-136.113 31.061-212.204 32.952v130.127h-0.105zM532.926 615.907c76.196 1.733 148.007 13.443 212.099 32.821 15.701-59.707 24.812-126.162 25.232-196.424h-237.332v163.604zM532.926 916.202c85.333-13.207 158.773-101.534 200.415-227.879-60.101-17.854-128.21-28.725-200.415-30.457v258.337zM871.293 750.051c-28.619-18.668-61.86-35.184-98.777-48.811-27.175 80.712-66.875 147.902-114.662 193.431 84.099-27.49 157.643-78.349 213.438-144.62v0zM981.753 452.303h-169.538c-0.315 74.883-10.371 145.749-27.806 209.762 41.643 15.386 79.189 34.238 111.59 55.9 53.117-75.382 84.913-166.781 85.753-265.662v0zM490.969 657.865c-73.124 1.838-141.942 12.813-202.673 31.061 42.168 127.291 116.526 215.696 202.673 227.591v-258.652zM490.969 452.303h-239.695c0.315 70.577 9.557 137.242 25.337 197.133 64.617-19.797 137.347-31.691 214.357-33.529v-163.604zM490.969 280.114c-77.115-1.838-149.845-13.758-214.567-33.529-13.233 50.255-21.74 105.525-24.287 163.787h238.855v-130.258zM490.969-20.391c-86.252 11.789-160.61 100.194-202.752 227.486 60.81 18.248 129.628 29.328 202.752 31.061v-258.547zM152.707 146.049c28.016 18.301 60.416 34.475 96.414 48.023 26.992-79.714 66.061-146.064 113.139-191.409-82.471 27.806-154.677 78.060-209.552 143.386v0zM43.691 410.372h166.361c2.678-62.884 12.314-122.565 27.175-177.099-40.724-15.413-77.535-33.95-109.332-55.217-47.078 66.77-77.43 146.248-84.204 232.317v0zM127.895 717.966c31.902-21.241 68.713-39.805 109.332-55.086-17.539-64.197-27.595-135.378-27.989-210.576h-167.175c0.919 98.882 32.715 190.359 85.832 265.662v0zM362.26 893.437c-46.973-45.424-86.147-111.8-113.034-191.383-36.208 13.443-68.608 29.749-96.702 48.102 54.955 65.247 127.265 115.502 209.736 143.281v0zM929.845 743.198c-7.798 11.054-15.885 21.74-24.602 32.085-93.972 112.824-235.389 184.714-393.242 184.714h-1.234c-0.604 0-1.234-0.105-1.733-0.105-156.83-0.814-296.934-72.599-390.354-184.609-8.638-10.345-16.83-21.031-24.629-32.085-59.182-83.495-94.050-185.239-94.050-295.201 0-109.831 34.869-211.679 94.050-295.175 7.798-10.975 15.99-21.74 24.629-32.085 93.42-112.010 233.525-183.716 390.354-184.635 0.499 0 1.129-0.105 1.733-0.105 0.105 0 0.315 0.105 0.42 0.105 0.21 0 0.499-0.105 0.814-0.105 157.854 0 299.271 71.943 393.242 184.74 8.612 10.345 16.804 21.11 24.602 32.085 59.182 83.495 94.050 185.344 94.050 295.175 0 109.962-34.869 211.705-94.050 295.201v0z" />
<glyph unicode="&#xe918;" glyph-name="unfold_more" horiz-adv-x="569" d="M284.444 799.004l180.338-180.338 80.213 80.213-260.551 261.12-261.12-261.12 80.782-80.213 180.338 180.338zM284.444 96.996l-180.338 180.338-80.213-80.213 260.551-261.12 261.12 261.12-80.782 80.213-180.338-180.338z" />
<glyph unicode="&#xe919;" glyph-name="list" horiz-adv-x="1536" d="M0-64h1536v170.667h-1536v-170.667zM0 362.667h1536v170.667h-1536v-170.667zM0 960v-170.667h1536v170.667h-1536z" />
<glyph unicode="&#xe91a;" glyph-name="car" horiz-adv-x="1152" d="M1018.88 895.36c-12.8 37.76-48.64 64.64-90.88 64.64h-704c-42.24 0-77.44-26.88-90.88-64.64l-133.12-383.36v-512c0-35.2 28.8-64 64-64h64c35.2 0 64 28.8 64 64v64h768v-64c0-35.2 28.8-64 64-64h64c35.2 0 64 28.8 64 64v512l-133.12 383.36zM224 256c-53.12 0-96 42.88-96 96s42.88 96 96 96c53.12 0 96-42.88 96-96s-42.88-96-96-96zM928 256c-53.12 0-96 42.88-96 96s42.88 96 96 96c53.12 0 96-42.88 96-96s-42.88-96-96-96zM128 576l96 288h704l96-288h-896z" />
<glyph unicode="&#xe91b;" glyph-name="child" horiz-adv-x="1252" d="M839.111 533.333c0-39.274-31.838-71.111-71.111-71.111s-71.111 31.838-71.111 71.111c0 39.274 31.838 71.111 71.111 71.111s71.111-31.838 71.111-71.111zM554.667 533.333c0-39.274-31.838-71.111-71.111-71.111s-71.111 31.838-71.111 71.111c0 39.274 31.838 71.111 71.111 71.111s71.111-31.838 71.111-71.111zM1248.142 410.453c2.276 11.947 3.413 24.462 3.413 37.547s-1.138 25.6-3.413 37.547c-14.222 85.902-77.369 155.876-159.858 180.338-30.151 63.716-72.818 119.467-124.587 165.547-89.884 80.213-208.213 128.569-337.92 128.569s-248.036-48.356-337.92-128.569c-52.338-46.080-95.004-102.4-124.587-165.547-82.489-24.462-145.636-93.867-159.858-180.338-2.276-11.947-3.413-24.462-3.413-37.547s1.138-25.6 3.413-37.547c14.222-85.902 77.369-155.876 159.858-180.338 29.582-63.147 72.249-118.898 123.449-164.409 89.884-80.782 208.782-129.707 339.058-129.707s249.173 48.924 339.627 129.707c51.2 45.511 93.867 101.831 123.449 164.409 81.92 24.462 145.067 93.867 159.289 180.338zM1024 334.222c-5.689 0-10.809 1.138-16.498 1.707-11.378-38.116-27.876-73.387-48.924-105.813-71.111-108.658-193.422-180.338-332.8-180.338s-261.689 71.68-332.8 180.338c-21.049 32.427-37.547 67.698-48.924 105.813-5.689-0.569-10.809-1.707-16.498-1.707-62.578 0-113.778 51.2-113.778 113.778s51.2 113.778 113.778 113.778c5.689 0 10.809-1.138 16.498-1.707 11.378 38.116 27.876 73.387 48.924 105.813 71.111 108.658 193.422 180.338 332.8 180.338s261.689-71.68 332.8-180.338c21.049-32.427 37.547-67.698 48.924-105.813 5.689 0.569 10.809 1.707 16.498 1.707 62.578 0 113.778-51.2 113.778-113.778s-51.2-113.778-113.778-113.778zM369.778 334.222c43.236-100.693 141.653-170.667 256-170.667s212.764 69.973 256 170.667h-512z" />
<glyph unicode="&#xe91c;" glyph-name="travellers" horiz-adv-x="1609" d="M1133.714 374.857c-87.771 0-224.549-24.869-329.143-73.143-104.594 49.006-241.371 73.143-329.143 73.143-158.72 0-475.429-78.994-475.429-237.714v-201.143h1609.143v201.143c0 158.72-316.709 237.714-475.429 237.714zM877.714 9.143h-731.429v91.429c0 39.497 187.246 128 365.714 128s365.714-88.503 365.714-128v-91.429zM1462.857 9.143h-547.203v91.429c0 33.646-14.592 62.903-37.939 89.234 64.205 21.943 143.002 38.766 220.341 38.766 178.024 0 364.802-88.503 364.802-128v-91.429zM475.429 448c141.166 0 256 114.834 256 256s-114.834 256-256 256c-141.166 0-256-114.834-256-256s114.834-256 256-256zM512 813.714c80.457 0 146.286-65.829 146.286-146.286s-65.829-146.286-146.286-146.286c-80.457 0-146.286 65.829-146.286 146.286s65.829 146.286 146.286 146.286zM1133.714 448c141.166 0 256 114.834 256 256s-114.834 256-256 256c-141.166 0-256-114.834-256-256s114.834-256 256-256zM1170.286 813.714c80.457 0 146.286-65.829 146.286-146.286s-65.829-146.286-146.286-146.286c-80.457 0-146.286 65.829-146.286 146.286s65.829 146.286 146.286 146.286z" />
</font>
</defs>
</svg>
